<?xml version="1.0" standalone="no"?>
<!DOCTYPE svg PUBLIC "-//W3C//DTD SVG 20010904//EN"
 "http://www.w3.org/TR/2001/REC-SVG-20010904/DTD/svg10.dtd">
<svg version="1.0" xmlns="http://www.w3.org/2000/svg"
 width="474.000000pt" height="474.000000pt" viewBox="0 0 474.000000 474.000000"
 preserveAspectRatio="xMidYMid meet">
<metadata>
Created by potrace 1.14, written by Peter Selinger 2001-2017
</metadata>
<g transform="translate(0.000000,474.000000) scale(0.100000,-0.100000)"
fill="#000000" stroke="none">
<path d="M0 2370 l0 -2370 2370 0 2370 0 0 2370 0 2370 -2370 0 -2370 0 0
-2370z m2460 2249 c6 -11 10 -203 10 -490 0 -426 -2 -474 -17 -491 -20 -22
-41 -23 -65 -1 -17 15 -18 44 -18 493 0 492 1 500 40 512 21 7 39 -1 50 -23z
m731 -259 c24 -13 24 -41 0 -144 -11 -44 -45 -187 -76 -316 -31 -129 -63 -245
-71 -257 -18 -28 -45 -29 -68 -4 -21 23 -28 -19 79 431 72 302 80 319 136 290z
m-1468 -33 c13 -9 26 -57 48 -172 16 -88 43 -232 60 -320 17 -87 28 -170 24
-182 -7 -29 -51 -42 -71 -21 -13 13 -134 609 -134 660 0 19 26 48 44 48 7 0
20 -6 29 -13z m-671 -239 c9 -7 69 -98 133 -203 65 -104 166 -269 226 -366 60
-97 109 -184 109 -192 0 -26 -45 -51 -68 -38 -26 14 -472 737 -472 766 0 37
42 56 72 33z m2819 2 c44 -24 47 -19 -316 -575 -79 -121 -153 -224 -164 -229
-16 -7 -26 -4 -41 9 -36 32 -48 9 213 410 83 127 170 262 195 300 60 95 74
105 113 85z m-2876 -896 l25 -27 0 -247 c0 -136 -3 -327 -6 -426 l-7 -179 -37
37 c-23 23 -54 42 -82 49 l-46 13 -7 361 c-4 199 -4 372 0 384 20 64 114 85
160 35z m2876 13 c40 -31 42 -44 34 -428 l-7 -367 -46 -12 c-29 -7 -59 -24
-82 -48 l-37 -37 -7 155 c-3 85 -6 278 -6 428 l0 273 25 24 c18 19 35 25 67
25 24 0 50 -6 59 -13z m-3161 -292 l25 -25 3 -251 3 -250 -35 -39 c-45 -50
-61 -108 -47 -166 16 -63 332 -755 348 -761 23 -9 61 6 68 26 5 18 -49 144
-276 643 -27 59 -49 119 -49 133 0 16 12 38 29 56 40 39 87 40 122 2 14 -16
84 -160 155 -322 110 -249 134 -298 163 -320 34 -26 38 -26 231 -31 l196 -5
83 -50 c156 -94 280 -244 337 -406 l29 -84 3 -479 c2 -386 1 -481 -10 -487
-17 -11 -539 -11 -555 -1 -9 6 -14 71 -16 242 -5 264 -11 299 -75 387 -20 28
-120 126 -222 216 -102 91 -195 175 -207 188 -12 13 -119 236 -238 496 -193
424 -216 480 -226 550 -6 45 -9 212 -7 394 3 301 4 318 23 339 42 47 101 48
145 5z m3460 0 l25 -25 3 -318 c2 -183 -1 -350 -7 -395 -10 -70 -32 -125 -222
-540 -116 -254 -220 -474 -231 -490 -11 -16 -109 -107 -217 -204 -295 -264
-292 -257 -299 -603 -3 -161 -8 -237 -16 -242 -15 -11 -538 -10 -554 1 -11 6
-12 101 -10 487 l3 479 29 84 c57 162 181 312 337 406 l83 50 195 5 c198 5
219 9 253 47 15 17 268 575 268 592 0 22 55 61 86 61 45 0 94 -42 94 -80 0
-16 -74 -194 -165 -395 -109 -241 -164 -373 -160 -386 7 -20 45 -35 68 -26 16
6 332 697 349 761 14 56 -3 116 -48 166 l-35 39 3 249 c3 234 4 251 23 272 42
47 101 48 145 5z m-2918 11 c10 -7 22 -25 28 -40 16 -42 14 -1169 -2 -1164 -7
3 -48 83 -91 179 l-78 174 3 407 3 406 24 26 c27 29 83 35 113 12z m2349 -12
l24 -26 3 -406 3 -407 -78 -174 c-43 -96 -84 -176 -91 -179 -10 -3 -12 116
-10 581 l3 585 24 26 c34 36 88 36 122 0z m-2082 -485 c59 -21 61 -33 61 -394
l0 -325 -100 0 -101 0 3 334 c3 318 4 335 23 356 34 38 65 46 114 29z m1811
-24 l25 -25 3 -335 3 -335 -101 0 -100 0 0 329 c0 320 1 329 21 355 41 52 103
56 149 11z"/>
</g>
</svg>
